# xmcd
#
# Track frame offsets: 
#        150
#        55530
#        95565
#        122483
#        129492
#        178903
#        214959
#        259334
#        283710
#
# Disc length: 4154 seconds
#
# Revision: 2
# Processed by: cddbd v1.5.2PL0 Copyright (c) Steve Scherf et al.
# Submitted via: ExactAudioCopy v0.95b4
#
DISCID=87103809
DTITLE=Keith Jarrett - Radiance [CD 1)
DYEAR=2002
DGENRE=Jazz
TTITLE0=Part 1
TTITLE1=Part 2
TTITLE2=Part 3
TTITLE3=Part 4
TTITLE4=Part 5
TTITLE5=Part 6
TTITLE6=Part 7
TTITLE7=Part 8
TTITLE8=Part 9
EXTD=YEAR: 2005
EXTT0=
EXTT1=
EXTT2=
EXTT3=
EXTT4=
EXTT5=
EXTT6=
EXTT7=
EXTT8=
PLAYORDER=
